<svg width="199" height="40" viewBox="0 0 199 40" fill="none" xmlns="http://www.w3.org/2000/svg">
<path d="M12.52 6.08C15.4533 6.08 18.0267 6.65333 20.24 7.8C22.48 8.94666 24.2 10.5867 25.4 12.72C26.6267 14.8267 27.24 17.28 27.24 20.08C27.24 22.88 26.6267 25.3333 25.4 27.44C24.2 29.52 22.48 31.1333 20.24 32.28C18.0267 33.4267 15.4533 34 12.52 34H2.76V6.08H12.52ZM12.32 29.24C15.2533 29.24 17.52 28.44 19.12 26.84C20.72 25.24 21.52 22.9867 21.52 20.08C21.52 17.1733 20.72 14.9067 19.12 13.28C17.52 11.6267 15.2533 10.8 12.32 10.8H8.36V29.24H12.32ZM38.0319 6.08V34H32.4319V6.08H38.0319ZM50.1647 10.6V17.6H59.5647V22.04H50.1647V29.44H60.7647V34H44.5647V6.04H60.7647V10.6H50.1647ZM76.4938 34.28C74.5471 34.28 72.7871 33.9467 71.2138 33.28C69.6671 32.6133 68.4404 31.6533 67.5338 30.4C66.6271 29.1467 66.1604 27.6667 66.1338 25.96H72.1338C72.2138 27.1067 72.6138 28.0133 73.3338 28.68C74.0804 29.3467 75.0938 29.68 76.3738 29.68C77.6804 29.68 78.7071 29.3733 79.4538 28.76C80.2004 28.12 80.5738 27.2933 80.5738 26.28C80.5738 25.4533 80.3204 24.7733 79.8138 24.24C79.3071 23.7067 78.6671 23.2933 77.8938 23C77.1471 22.68 76.1071 22.3333 74.7738 21.96C72.9604 21.4267 71.4804 20.9067 70.3338 20.4C69.2138 19.8667 68.2404 19.08 67.4138 18.04C66.6138 16.9733 66.2138 15.56 66.2138 13.8C66.2138 12.1467 66.6271 10.7067 67.4538 9.48C68.2804 8.25333 69.4404 7.32 70.9338 6.68C72.4271 6.01333 74.1338 5.68 76.0538 5.68C78.9338 5.68 81.2671 6.38667 83.0538 7.8C84.8671 9.18667 85.8671 11.1333 86.0538 13.64H79.8938C79.8404 12.68 79.4271 11.8933 78.6538 11.28C77.9071 10.64 76.9071 10.32 75.6538 10.32C74.5604 10.32 73.6804 10.6 73.0138 11.16C72.3738 11.72 72.0538 12.5333 72.0538 13.6C72.0538 14.3467 72.2938 14.9733 72.7738 15.48C73.2804 15.96 73.8938 16.36 74.6138 16.68C75.3604 16.9733 76.4004 17.32 77.7338 17.72C79.5471 18.2533 81.0271 18.7867 82.1738 19.32C83.3204 19.8533 84.3071 20.6533 85.1338 21.72C85.9604 22.7867 86.3738 24.1867 86.3738 25.92C86.3738 27.4133 85.9871 28.8 85.2137 30.08C84.4404 31.36 83.3071 32.3867 81.8138 33.16C80.3204 33.9067 78.5471 34.28 76.4938 34.28ZM97.8288 6.08V34H92.2288V6.08H97.8288ZM109.962 10.6V17.6H119.362V22.04H109.962V29.44H120.562V34H104.362V6.04H120.562V10.6H109.962ZM132.251 29.56H141.451V34H126.651V6.08H132.251V29.56Z" fill="#1F1E1E"/>
<rect x="159" width="40" height="40" fill="#1F1E1E"/>
<path d="M169.432 28.168C167.864 28.168 166.424 27.8 165.112 27.064C163.8 26.328 162.76 25.312 161.992 24.016C161.224 22.704 160.84 21.224 160.84 19.576C160.84 17.944 161.224 16.48 161.992 15.184C162.76 13.872 163.8 12.848 165.112 12.112C166.424 11.376 167.864 11.008 169.432 11.008C171.016 11.008 172.456 11.376 173.752 12.112C175.064 12.848 176.096 13.872 176.848 15.184C177.616 16.48 178 17.944 178 19.576C178 21.224 177.616 22.704 176.848 24.016C176.096 25.312 175.064 26.328 173.752 27.064C172.44 27.8 171 28.168 169.432 28.168ZM169.432 25.168C170.44 25.168 171.328 24.944 172.096 24.496C172.864 24.032 173.464 23.376 173.896 22.528C174.328 21.68 174.544 20.696 174.544 19.576C174.544 18.456 174.328 17.48 173.896 16.648C173.464 15.8 172.864 15.152 172.096 14.704C171.328 14.256 170.44 14.032 169.432 14.032C168.424 14.032 167.528 14.256 166.744 14.704C165.976 15.152 165.376 15.8 164.944 16.648C164.512 17.48 164.296 18.456 164.296 19.576C164.296 20.696 164.512 21.68 164.944 22.528C165.376 23.376 165.976 24.032 166.744 24.496C167.528 24.944 168.424 25.168 169.432 25.168ZM195.828 28H192.468L184.86 16.504V28H181.5V11.224H184.86L192.468 22.744V11.224H195.828V28Z" fill="white"/>
</svg>
